<svg width="36" height="40" viewBox="0 0 36 40" fill="none" xmlns="http://www.w3.org/2000/svg">
<g clip-path="url(#clip0_221_54)">
<path d="M18 20C23.6812 20 28.2857 15.5234 28.2857 10C28.2857 4.47656 23.6812 0 18 0C12.3188 0 7.71429 4.47656 7.71429 10C7.71429 15.5234 12.3188 20 18 20ZM25.2 22.5H23.858C22.0741 23.2969 20.0893 23.75 18 23.75C15.9107 23.75 13.9339 23.2969 12.142 22.5H10.8C4.8375 22.5 0 27.2031 0 33V36.25C0 38.3203 1.72768 40 3.85714 40H32.1429C34.2723 40 36 38.3203 36 36.25V33C36 27.2031 31.1625 22.5 25.2 22.5Z" fill="black"/>
</g>
<defs>
<clipPath id="clip0_221_54">
<rect width="36" height="40" fill="white"/>
</clipPath>
</defs>
</svg>
